<mxfile host="app.diagrams.net" modified="2023-05-20T16:20:18.548Z" agent="Mozilla/5.0 (Macintosh; Intel Mac OS X 10.15; rv:109.0) Gecko/20100101 Firefox/112.0" etag="YW823J_7JnLw0MV3Bcyi" version="21.3.2" type="device">
  <diagram name="Page-1" id="XOIwj79U8CsThIvM7l4O">
    <mxGraphModel dx="1018" dy="1409" grid="1" gridSize="10" guides="1" tooltips="1" connect="1" arrows="1" fold="1" page="1" pageScale="1" pageWidth="850" pageHeight="1100" math="0" shadow="0">
      <root>
        <mxCell id="0" />
        <mxCell id="1" parent="0" />
        <mxCell id="yDJCv5aYlXBETPwp00M8-1" value="" style="ellipse;whiteSpace=wrap;html=1;" vertex="1" parent="1">
          <mxGeometry x="40" y="70" width="290" height="380" as="geometry" />
        </mxCell>
        <mxCell id="yDJCv5aYlXBETPwp00M8-2" value="" style="ellipse;whiteSpace=wrap;html=1;" vertex="1" parent="1">
          <mxGeometry x="460" y="70" width="290" height="380" as="geometry" />
        </mxCell>
        <mxCell id="yDJCv5aYlXBETPwp00M8-3" value="" style="endArrow=none;dashed=1;html=1;rounded=0;exitX=0;exitY=0.5;exitDx=0;exitDy=0;entryX=1;entryY=0.5;entryDx=0;entryDy=0;" edge="1" parent="1" source="yDJCv5aYlXBETPwp00M8-1" target="yDJCv5aYlXBETPwp00M8-1">
          <mxGeometry width="50" height="50" relative="1" as="geometry">
            <mxPoint x="400" y="740" as="sourcePoint" />
            <mxPoint x="450" y="690" as="targetPoint" />
            <Array as="points">
              <mxPoint x="185" y="300" />
            </Array>
          </mxGeometry>
        </mxCell>
        <mxCell id="yDJCv5aYlXBETPwp00M8-4" value="" style="endArrow=none;html=1;rounded=0;entryX=0;entryY=0.5;entryDx=0;entryDy=0;exitX=1;exitY=0.5;exitDx=0;exitDy=0;" edge="1" parent="1" source="yDJCv5aYlXBETPwp00M8-9" target="yDJCv5aYlXBETPwp00M8-2">
          <mxGeometry width="50" height="50" relative="1" as="geometry">
            <mxPoint x="400" y="740" as="sourcePoint" />
            <mxPoint x="450" y="690" as="targetPoint" />
            <Array as="points" />
          </mxGeometry>
        </mxCell>
        <mxCell id="yDJCv5aYlXBETPwp00M8-5" value="" style="ellipse;whiteSpace=wrap;html=1;aspect=fixed;fillColor=#330000;" vertex="1" parent="1">
          <mxGeometry x="240" y="270" width="20" height="20" as="geometry" />
        </mxCell>
        <mxCell id="yDJCv5aYlXBETPwp00M8-6" value="" style="ellipse;whiteSpace=wrap;html=1;aspect=fixed;fillColor=#330000;" vertex="1" parent="1">
          <mxGeometry x="120" y="260" width="20" height="20" as="geometry" />
        </mxCell>
        <mxCell id="yDJCv5aYlXBETPwp00M8-7" value="" style="ellipse;whiteSpace=wrap;html=1;aspect=fixed;fillColor=#330000;" vertex="1" parent="1">
          <mxGeometry x="130" y="340" width="20" height="20" as="geometry" />
        </mxCell>
        <mxCell id="yDJCv5aYlXBETPwp00M8-8" value="" style="ellipse;whiteSpace=wrap;html=1;aspect=fixed;fillColor=#330000;" vertex="1" parent="1">
          <mxGeometry x="160" y="160" width="20" height="20" as="geometry" />
        </mxCell>
        <mxCell id="yDJCv5aYlXBETPwp00M8-10" value="" style="endArrow=none;html=1;rounded=0;entryX=0;entryY=0.5;entryDx=0;entryDy=0;exitX=1;exitY=0.5;exitDx=0;exitDy=0;" edge="1" parent="1" source="yDJCv5aYlXBETPwp00M8-2" target="yDJCv5aYlXBETPwp00M8-9">
          <mxGeometry width="50" height="50" relative="1" as="geometry">
            <mxPoint x="750" y="260" as="sourcePoint" />
            <mxPoint x="460" y="260" as="targetPoint" />
            <Array as="points">
              <mxPoint x="610" y="310" />
            </Array>
          </mxGeometry>
        </mxCell>
        <mxCell id="yDJCv5aYlXBETPwp00M8-9" value="" style="ellipse;whiteSpace=wrap;html=1;aspect=fixed;fillColor=#330000;" vertex="1" parent="1">
          <mxGeometry x="540" y="280" width="20" height="20" as="geometry" />
        </mxCell>
        <mxCell id="yDJCv5aYlXBETPwp00M8-11" value="" style="ellipse;whiteSpace=wrap;html=1;aspect=fixed;fillColor=#330000;" vertex="1" parent="1">
          <mxGeometry x="580" y="310" width="20" height="20" as="geometry" />
        </mxCell>
        <mxCell id="yDJCv5aYlXBETPwp00M8-12" value="" style="ellipse;whiteSpace=wrap;html=1;aspect=fixed;fillColor=#330000;" vertex="1" parent="1">
          <mxGeometry x="595" y="170" width="20" height="20" as="geometry" />
        </mxCell>
        <mxCell id="yDJCv5aYlXBETPwp00M8-13" value="" style="ellipse;whiteSpace=wrap;html=1;aspect=fixed;fillColor=#330000;" vertex="1" parent="1">
          <mxGeometry x="600" y="380" width="20" height="20" as="geometry" />
        </mxCell>
        <mxCell id="yDJCv5aYlXBETPwp00M8-14" value="&lt;font style=&quot;font-size: 17px;&quot;&gt;OUT&lt;/font&gt;" style="text;html=1;strokeColor=none;fillColor=none;align=center;verticalAlign=middle;whiteSpace=wrap;rounded=0;" vertex="1" parent="1">
          <mxGeometry x="615" y="380" width="60" height="30" as="geometry" />
        </mxCell>
        <mxCell id="yDJCv5aYlXBETPwp00M8-15" value="&lt;font style=&quot;font-size: 17px;&quot;&gt;OUT&lt;/font&gt;" style="text;html=1;strokeColor=none;fillColor=none;align=center;verticalAlign=middle;whiteSpace=wrap;rounded=0;" vertex="1" parent="1">
          <mxGeometry x="150" y="340" width="60" height="30" as="geometry" />
        </mxCell>
        <mxCell id="yDJCv5aYlXBETPwp00M8-16" value="&lt;font style=&quot;font-size: 17px;&quot;&gt;OFF&lt;/font&gt;" style="text;html=1;strokeColor=none;fillColor=none;align=center;verticalAlign=middle;whiteSpace=wrap;rounded=0;" vertex="1" parent="1">
          <mxGeometry x="595" y="320" width="60" height="30" as="geometry" />
        </mxCell>
        <mxCell id="yDJCv5aYlXBETPwp00M8-17" value="&lt;font style=&quot;font-size: 17px;&quot;&gt;ON&lt;/font&gt;" style="text;html=1;strokeColor=none;fillColor=none;align=center;verticalAlign=middle;whiteSpace=wrap;rounded=0;" vertex="1" parent="1">
          <mxGeometry x="540" y="260" width="60" height="30" as="geometry" />
        </mxCell>
        <mxCell id="yDJCv5aYlXBETPwp00M8-18" value="&lt;font style=&quot;font-size: 17px;&quot;&gt;IN&lt;/font&gt;" style="text;html=1;strokeColor=none;fillColor=none;align=center;verticalAlign=middle;whiteSpace=wrap;rounded=0;" vertex="1" parent="1">
          <mxGeometry x="615" y="180" width="60" height="30" as="geometry" />
        </mxCell>
        <mxCell id="yDJCv5aYlXBETPwp00M8-20" value="&lt;font style=&quot;font-size: 17px;&quot;&gt;OFF&lt;/font&gt;" style="text;html=1;strokeColor=none;fillColor=none;align=center;verticalAlign=middle;whiteSpace=wrap;rounded=0;" vertex="1" parent="1">
          <mxGeometry x="250" y="280" width="60" height="30" as="geometry" />
        </mxCell>
        <mxCell id="yDJCv5aYlXBETPwp00M8-21" value="&lt;font style=&quot;font-size: 17px;&quot;&gt;ON&lt;/font&gt;" style="text;html=1;strokeColor=none;fillColor=none;align=center;verticalAlign=middle;whiteSpace=wrap;rounded=0;" vertex="1" parent="1">
          <mxGeometry x="130" y="250" width="60" height="30" as="geometry" />
        </mxCell>
        <mxCell id="yDJCv5aYlXBETPwp00M8-22" value="&lt;font style=&quot;font-size: 17px;&quot;&gt;IN&lt;/font&gt;" style="text;html=1;strokeColor=none;fillColor=none;align=center;verticalAlign=middle;whiteSpace=wrap;rounded=0;" vertex="1" parent="1">
          <mxGeometry x="160" y="170" width="60" height="30" as="geometry" />
        </mxCell>
        <mxCell id="yDJCv5aYlXBETPwp00M8-23" value="examined domain" style="text;html=1;strokeColor=none;fillColor=none;align=center;verticalAlign=middle;whiteSpace=wrap;rounded=0;" vertex="1" parent="1">
          <mxGeometry x="120" y="100" width="130" height="30" as="geometry" />
        </mxCell>
        <mxCell id="yDJCv5aYlXBETPwp00M8-24" value="examined domain" style="text;html=1;strokeColor=none;fillColor=none;align=center;verticalAlign=middle;whiteSpace=wrap;rounded=0;" vertex="1" parent="1">
          <mxGeometry x="540" y="100" width="130" height="30" as="geometry" />
        </mxCell>
        <mxCell id="yDJCv5aYlXBETPwp00M8-25" value="&lt;div style=&quot;font-size: 13px;&quot;&gt;&lt;font style=&quot;font-size: 15px;&quot;&gt;EP with open boundary&lt;/font&gt;&lt;/div&gt;" style="text;html=1;strokeColor=none;fillColor=none;align=center;verticalAlign=middle;whiteSpace=wrap;rounded=0;" vertex="1" parent="1">
          <mxGeometry x="95" y="30" width="170" height="30" as="geometry" />
        </mxCell>
        <mxCell id="yDJCv5aYlXBETPwp00M8-26" value="&lt;div style=&quot;font-size: 15px;&quot;&gt;EP with closed boundary&lt;/div&gt;" style="text;html=1;strokeColor=none;fillColor=none;align=center;verticalAlign=middle;whiteSpace=wrap;rounded=0;" vertex="1" parent="1">
          <mxGeometry x="517.5" y="30" width="175" height="30" as="geometry" />
        </mxCell>
      </root>
    </mxGraphModel>
  </diagram>
</mxfile>
